<?xml version="1.0" encoding="UTF-8" standalone="no"?>
<svg width="384px" height="512px" viewBox="0 0 384 512" version="1.1" xmlns="http://www.w3.org/2000/svg" xmlns:xlink="http://www.w3.org/1999/xlink" xmlns:sketch="http://www.bohemiancoding.com/sketch/ns">
    <title>Slice 1</title>
    <description>Created with Sketch (http://www.bohemiancoding.com/sketch)</description>
    <defs></defs>
    <g id="Page-1" stroke="none" stroke-width="1" fill="none" fill-rule="evenodd" sketch:type="MSPage">
        <g id="remove2" sketch:type="MSLayerGroup" fill="#000000">
            <path d="M336,64 L48,64 C21.49,64 0,85.49 0,112 L0,128 L384,128 L384,112 C384,85.49 362.51,64 336,64 L336,64 Z M252.16,32 L259.218,82.5 L124.782,82.5 L131.839,32 L252.16,32 L252.16,32 Z M256,0 L128,0 C114.8,0 102.505,10.696 100.679,23.769 L91.322,90.731 C89.495,103.804 98.8,114.5 112,114.5 L272,114.5 C285.2,114.5 294.505,103.804 292.679,90.731 L283.322,23.769 C281.495,10.696 269.2,0 256,0 L256,0 L256,0 Z M344,160 L40,160 C22.4,160 9.304,174.341 10.897,191.869 L37.103,480.132 C38.696,497.659 54.4,512 72,512 L312,512 C329.6,512 345.304,497.659 346.897,480.132 L373.102,191.869 C374.696,174.341 361.6,160 344,160 L344,160 Z M128,448 L80,448 L64,224 L128,224 L128,448 L128,448 Z M224,448 L160,448 L160,224 L224,224 L224,448 L224,448 Z M304,448 L256,448 L256,224 L320,224 L304,448 L304,448 Z" id="Shape" sketch:type="MSShapeGroup"></path>
        </g>
    </g>
</svg>